# xmcd
#
# Track frame offsets:
#	150
#	17003
#	35675
#	53664
#	69007
#	85689
#	99420
#	120486
#	172281
#	198692
#	225502
#	256445
#	278598
#	316862
#
# Disc length: 4723 seconds
#
# Revision: 1
# Processed by: cddbd v1.5.2PL0 Copyright (c) Steve Scherf et al.
# Submitted via: audiograbber 1.83.01
#
DISCID=b212710e
DTITLE=Driftin - Pipline
DYEAR=2007
DGENRE=Blues
TTITLE0=Baby what you want me to do
TTITLE1=Sweet Home Chicago
TTITLE2=Red House
TTITLE3=Celestial Voices
TTITLE4=Hi Heel Sneakers
TTITLE5=Waking on Sunset
TTITLE6=Orange Groove
TTITLE7=It´s about Time
TTITLE8=Yorkshire Blues
TTITLE9=Taking care of Business
TTITLE10=Shamal
TTITLE11=A Funky Jam
TTITLE12=A jam Ballad
TTITLE13=Beck´s Tune
EXTD=
EXTT0=
EXTT1=
EXTT2=
EXTT3=
EXTT4=
EXTT5=
EXTT6=
EXTT7=
EXTT8=
EXTT9=
EXTT10=
EXTT11=
EXTT12=
EXTT13=
PLAYORDER=
